<svg id="Layer_1" data-name="Layer 1" xmlns="http://www.w3.org/2000/svg" viewBox="0 0 260 258.65"><defs><style>.cls-1{fill:#fff;}</style></defs><rect y="155.65" width="260" height="103"/><path class="cls-1" d="M867.08,755.91V790h-6.32V717.27h6.32V744h.57a15.27,15.27,0,0,1,6-6.74,18.87,18.87,0,0,1,10.21-2.53,20,20,0,0,1,9.73,2.28,15.87,15.87,0,0,1,6.54,6.71,23.23,23.23,0,0,1,2.34,10.94V790h-6.36V755.06q0-6.75-3.74-10.64t-10.11-3.89a16,16,0,0,0-7.77,1.85,13.41,13.41,0,0,0-5.38,5.31A16.29,16.29,0,0,0,867.08,755.91Z" transform="translate(-832 -547.35)"/><path class="cls-1" d="M964.53,790l-4.19-4.15,24.71-24.69H923.26v-6h61.79l-24.71-24.68,4.19-4.16,31.82,31.82Z" transform="translate(-832 -547.35)"/><path class="cls-1" d="M1036.9,791a20,20,0,0,1-13.09-4.42q-5.41-4.43-8.31-12.8a71.41,71.41,0,0,1,0-40.22q2.89-8.35,8.35-12.82a21.36,21.36,0,0,1,26.1,0q5.44,4.47,8.34,12.82a71.18,71.18,0,0,1,0,40.22q-2.88,8.38-8.3,12.8A20,20,0,0,1,1036.9,791Zm0-6q8.41,0,13.14-8.22t4.72-23.17a58.56,58.56,0,0,0-2.15-17c-1.43-4.69-3.48-8.29-6.14-10.77a13.51,13.51,0,0,0-9.57-3.73q-8.34,0-13.1,8.29T1019,753.64a58.3,58.3,0,0,0,2.15,17q2.14,7,6.14,10.73A13.6,13.6,0,0,0,1036.9,785Z" transform="translate(-832 -547.35)"/><path d="M832,691v-5.59c12.77-1.2,14.37-2.2,14.37-15.39v-95.7c0-12.18-1-13.38-13.77-15v-5.19a141.23,141.23,0,0,0,29.53-6.8V670c0,13.19,1.2,14.19,14.17,15.39V691Z" transform="translate(-832 -547.35)"/><path d="M886.67,691v-5.59c12.57-1.2,14-2.2,14-15.79V628.47c0-12.39-.6-13.19-12.57-15.19v-4.79a130.88,130.88,0,0,0,28.33-8v69.12c0,13.59,1.4,14.59,14.37,15.79V691Zm20.76-110.08a10.93,10.93,0,0,1-10.58-10.59,10.79,10.79,0,0,1,10.77-11c5.59,0,10.18,4.6,10.18,11A10.61,10.61,0,0,1,907.43,580.92Z" transform="translate(-832 -547.35)"/><path d="M1050.5,691v-5.59c11.77-1.2,13.17-2,13.17-16V636.06c0-14.19-4.79-23.18-17.17-23.18-7.58,0-14.56,4.2-22.14,10.39a85.58,85.58,0,0,1,.59,8.59v38.76c0,12.59,1.8,13.59,12.77,14.79V691H995v-5.59c12.38-1.2,14.17-2,14.17-15.19V635.86c0-14.78-4.59-23-16.76-23-8,0-15.76,5.4-21.95,10.39v47c0,13.19,1.4,14,12.77,15.19V691h-42.9v-5.59c13.17-1.2,14.37-2,14.37-15.19V628.87c0-12.79-.8-13.59-12-15.59v-5a107.34,107.34,0,0,0,27.74-8v16.18a139.29,139.29,0,0,1,14.77-10.39c5-3.2,9.37-5.19,15.76-5.19,9.58,0,17.76,6,21.75,16.38,5.59-4.4,10.77-7.79,15.76-11.19,4.39-2.8,10-5.19,15.77-5.19,15.56,0,25.14,11.18,25.14,30.76v38.56c0,13.39,1.2,14,12.57,15.19V691Z" transform="translate(-832 -547.35)"/></svg>